<mxfile host="app.diagrams.net" modified="2024-01-18T07:08:37.981Z" agent="Mozilla/5.0 (Windows NT 10.0; Win64; x64) AppleWebKit/537.36 (KHTML, like Gecko) Chrome/120.0.0.0 Safari/537.36" etag="0rdXdLAEvRjfENCF-GCw" version="22.1.21" type="device">
  <diagram id="C5RBs43oDa-KdzZeNtuy" name="Page-1">
    <mxGraphModel dx="712" dy="820" grid="1" gridSize="10" guides="1" tooltips="1" connect="1" arrows="1" fold="1" page="1" pageScale="1" pageWidth="827" pageHeight="1169" math="0" shadow="0">
      <root>
        <mxCell id="WIyWlLk6GJQsqaUBKTNV-0" />
        <mxCell id="WIyWlLk6GJQsqaUBKTNV-1" parent="WIyWlLk6GJQsqaUBKTNV-0" />
        <mxCell id="WIyWlLk6GJQsqaUBKTNV-2" value="" style="rounded=0;html=1;jettySize=auto;orthogonalLoop=1;fontSize=11;endArrow=block;endFill=0;endSize=8;strokeWidth=1;shadow=0;labelBackgroundColor=none;edgeStyle=orthogonalEdgeStyle;" parent="WIyWlLk6GJQsqaUBKTNV-1" source="WIyWlLk6GJQsqaUBKTNV-3" target="WIyWlLk6GJQsqaUBKTNV-6" edge="1">
          <mxGeometry relative="1" as="geometry" />
        </mxCell>
        <mxCell id="WIyWlLk6GJQsqaUBKTNV-3" value="Choose Product" style="rounded=1;whiteSpace=wrap;html=1;fontSize=12;glass=0;strokeWidth=1;shadow=0;" parent="WIyWlLk6GJQsqaUBKTNV-1" vertex="1">
          <mxGeometry x="120" y="340" width="120" height="40" as="geometry" />
        </mxCell>
        <mxCell id="WIyWlLk6GJQsqaUBKTNV-4" value="Yes" style="rounded=0;html=1;jettySize=auto;orthogonalLoop=1;fontSize=11;endArrow=block;endFill=0;endSize=8;strokeWidth=1;shadow=0;labelBackgroundColor=none;edgeStyle=orthogonalEdgeStyle;entryX=0.5;entryY=0;entryDx=0;entryDy=0;" parent="WIyWlLk6GJQsqaUBKTNV-1" source="WIyWlLk6GJQsqaUBKTNV-6" target="5SAWFpddNFWqv7-z3w02-13" edge="1">
          <mxGeometry y="20" relative="1" as="geometry">
            <mxPoint as="offset" />
            <mxPoint x="180" y="550" as="targetPoint" />
          </mxGeometry>
        </mxCell>
        <mxCell id="WIyWlLk6GJQsqaUBKTNV-5" value="No" style="edgeStyle=orthogonalEdgeStyle;rounded=0;html=1;jettySize=auto;orthogonalLoop=1;fontSize=11;endArrow=block;endFill=0;endSize=8;strokeWidth=1;shadow=0;labelBackgroundColor=none;" parent="WIyWlLk6GJQsqaUBKTNV-1" source="WIyWlLk6GJQsqaUBKTNV-6" target="WIyWlLk6GJQsqaUBKTNV-7" edge="1">
          <mxGeometry y="10" relative="1" as="geometry">
            <mxPoint as="offset" />
          </mxGeometry>
        </mxCell>
        <mxCell id="WIyWlLk6GJQsqaUBKTNV-6" value="Buy?" style="rhombus;whiteSpace=wrap;html=1;shadow=0;fontFamily=Helvetica;fontSize=12;align=center;strokeWidth=1;spacing=6;spacingTop=-4;" parent="WIyWlLk6GJQsqaUBKTNV-1" vertex="1">
          <mxGeometry x="130" y="430" width="100" height="80" as="geometry" />
        </mxCell>
        <mxCell id="WIyWlLk6GJQsqaUBKTNV-7" value="Add to Wishlist" style="rounded=1;whiteSpace=wrap;html=1;fontSize=12;glass=0;strokeWidth=1;shadow=0;" parent="WIyWlLk6GJQsqaUBKTNV-1" vertex="1">
          <mxGeometry x="280" y="450" width="120" height="40" as="geometry" />
        </mxCell>
        <mxCell id="5SAWFpddNFWqv7-z3w02-0" value="Apply Filter" style="rounded=1;whiteSpace=wrap;html=1;fontSize=12;glass=0;strokeWidth=1;shadow=0;" vertex="1" parent="WIyWlLk6GJQsqaUBKTNV-1">
          <mxGeometry x="120" y="260" width="120" height="40" as="geometry" />
        </mxCell>
        <mxCell id="5SAWFpddNFWqv7-z3w02-1" value="Search Product" style="rounded=1;whiteSpace=wrap;html=1;fontSize=12;glass=0;strokeWidth=1;shadow=0;" vertex="1" parent="WIyWlLk6GJQsqaUBKTNV-1">
          <mxGeometry x="120" y="180" width="120" height="40" as="geometry" />
        </mxCell>
        <mxCell id="5SAWFpddNFWqv7-z3w02-2" value="Start" style="ellipse;whiteSpace=wrap;html=1;fontSize=16;" vertex="1" parent="WIyWlLk6GJQsqaUBKTNV-1">
          <mxGeometry x="120" y="90" width="120" height="40" as="geometry" />
        </mxCell>
        <mxCell id="5SAWFpddNFWqv7-z3w02-3" value="" style="rounded=0;html=1;jettySize=auto;orthogonalLoop=1;fontSize=11;endArrow=block;endFill=0;endSize=8;strokeWidth=1;shadow=0;labelBackgroundColor=none;edgeStyle=orthogonalEdgeStyle;exitX=1;exitY=0.25;exitDx=0;exitDy=0;entryX=1;entryY=0.5;entryDx=0;entryDy=0;" edge="1" parent="WIyWlLk6GJQsqaUBKTNV-1" source="WIyWlLk6GJQsqaUBKTNV-7" target="5SAWFpddNFWqv7-z3w02-1">
          <mxGeometry relative="1" as="geometry">
            <mxPoint x="470" y="420" as="sourcePoint" />
            <mxPoint x="470" y="470" as="targetPoint" />
          </mxGeometry>
        </mxCell>
        <mxCell id="5SAWFpddNFWqv7-z3w02-9" value="" style="rounded=0;html=1;jettySize=auto;orthogonalLoop=1;fontSize=11;endArrow=block;endFill=0;endSize=8;strokeWidth=1;shadow=0;labelBackgroundColor=none;edgeStyle=orthogonalEdgeStyle;exitX=0.5;exitY=1;exitDx=0;exitDy=0;entryX=0.5;entryY=0;entryDx=0;entryDy=0;" edge="1" parent="WIyWlLk6GJQsqaUBKTNV-1" source="5SAWFpddNFWqv7-z3w02-0" target="WIyWlLk6GJQsqaUBKTNV-3">
          <mxGeometry relative="1" as="geometry">
            <mxPoint x="190" y="390" as="sourcePoint" />
            <mxPoint x="190" y="440" as="targetPoint" />
          </mxGeometry>
        </mxCell>
        <mxCell id="5SAWFpddNFWqv7-z3w02-10" value="" style="rounded=0;html=1;jettySize=auto;orthogonalLoop=1;fontSize=11;endArrow=block;endFill=0;endSize=8;strokeWidth=1;shadow=0;labelBackgroundColor=none;edgeStyle=orthogonalEdgeStyle;exitX=0.5;exitY=1;exitDx=0;exitDy=0;entryX=0.5;entryY=0;entryDx=0;entryDy=0;" edge="1" parent="WIyWlLk6GJQsqaUBKTNV-1" source="5SAWFpddNFWqv7-z3w02-1" target="5SAWFpddNFWqv7-z3w02-0">
          <mxGeometry relative="1" as="geometry">
            <mxPoint x="200" y="400" as="sourcePoint" />
            <mxPoint x="169" y="261" as="targetPoint" />
          </mxGeometry>
        </mxCell>
        <mxCell id="5SAWFpddNFWqv7-z3w02-13" value="Add to Cart" style="rounded=1;whiteSpace=wrap;html=1;fontSize=12;glass=0;strokeWidth=1;shadow=0;" vertex="1" parent="WIyWlLk6GJQsqaUBKTNV-1">
          <mxGeometry x="120" y="545" width="120" height="40" as="geometry" />
        </mxCell>
        <mxCell id="5SAWFpddNFWqv7-z3w02-16" value="Place Order" style="rounded=1;whiteSpace=wrap;html=1;fontSize=12;glass=0;strokeWidth=1;shadow=0;" vertex="1" parent="WIyWlLk6GJQsqaUBKTNV-1">
          <mxGeometry x="120" y="625" width="120" height="40" as="geometry" />
        </mxCell>
        <mxCell id="5SAWFpddNFWqv7-z3w02-19" value="" style="rounded=0;html=1;jettySize=auto;orthogonalLoop=1;fontSize=11;endArrow=block;endFill=0;endSize=8;strokeWidth=1;shadow=0;labelBackgroundColor=none;edgeStyle=orthogonalEdgeStyle;exitX=0.5;exitY=1;exitDx=0;exitDy=0;entryX=0.5;entryY=0;entryDx=0;entryDy=0;" edge="1" parent="WIyWlLk6GJQsqaUBKTNV-1" source="5SAWFpddNFWqv7-z3w02-13" target="5SAWFpddNFWqv7-z3w02-16">
          <mxGeometry relative="1" as="geometry">
            <mxPoint x="300" y="610" as="sourcePoint" />
            <mxPoint x="310" y="610" as="targetPoint" />
          </mxGeometry>
        </mxCell>
        <mxCell id="5SAWFpddNFWqv7-z3w02-20" value="Ship Product" style="rounded=1;whiteSpace=wrap;html=1;fontSize=12;glass=0;strokeWidth=1;shadow=0;" vertex="1" parent="WIyWlLk6GJQsqaUBKTNV-1">
          <mxGeometry x="300" y="625" width="120" height="40" as="geometry" />
        </mxCell>
        <mxCell id="5SAWFpddNFWqv7-z3w02-21" value="Collect Payment" style="rounded=1;whiteSpace=wrap;html=1;fontSize=12;glass=0;strokeWidth=1;shadow=0;" vertex="1" parent="WIyWlLk6GJQsqaUBKTNV-1">
          <mxGeometry x="480" y="625" width="120" height="40" as="geometry" />
        </mxCell>
        <mxCell id="5SAWFpddNFWqv7-z3w02-22" value="" style="rounded=0;html=1;jettySize=auto;orthogonalLoop=1;fontSize=11;endArrow=block;endFill=0;endSize=8;strokeWidth=1;shadow=0;labelBackgroundColor=none;edgeStyle=orthogonalEdgeStyle;exitX=0.5;exitY=1;exitDx=0;exitDy=0;entryX=0.5;entryY=0;entryDx=0;entryDy=0;" edge="1" parent="WIyWlLk6GJQsqaUBKTNV-1" source="5SAWFpddNFWqv7-z3w02-2" target="5SAWFpddNFWqv7-z3w02-1">
          <mxGeometry relative="1" as="geometry">
            <mxPoint x="320" y="90" as="sourcePoint" />
            <mxPoint x="320" y="130" as="targetPoint" />
          </mxGeometry>
        </mxCell>
        <mxCell id="5SAWFpddNFWqv7-z3w02-25" value="" style="rounded=0;html=1;jettySize=auto;orthogonalLoop=1;fontSize=11;endArrow=block;endFill=0;endSize=8;strokeWidth=1;shadow=0;labelBackgroundColor=none;edgeStyle=orthogonalEdgeStyle;exitX=1;exitY=0.5;exitDx=0;exitDy=0;entryX=0;entryY=0.5;entryDx=0;entryDy=0;" edge="1" parent="WIyWlLk6GJQsqaUBKTNV-1" source="5SAWFpddNFWqv7-z3w02-16" target="5SAWFpddNFWqv7-z3w02-20">
          <mxGeometry relative="1" as="geometry">
            <mxPoint x="330" y="560" as="sourcePoint" />
            <mxPoint x="330" y="600" as="targetPoint" />
          </mxGeometry>
        </mxCell>
        <mxCell id="5SAWFpddNFWqv7-z3w02-26" value="" style="rounded=0;html=1;jettySize=auto;orthogonalLoop=1;fontSize=11;endArrow=block;endFill=0;endSize=8;strokeWidth=1;shadow=0;labelBackgroundColor=none;edgeStyle=orthogonalEdgeStyle;exitX=1;exitY=0.5;exitDx=0;exitDy=0;entryX=0;entryY=0.5;entryDx=0;entryDy=0;" edge="1" parent="WIyWlLk6GJQsqaUBKTNV-1" source="5SAWFpddNFWqv7-z3w02-20" target="5SAWFpddNFWqv7-z3w02-21">
          <mxGeometry relative="1" as="geometry">
            <mxPoint x="500" y="500" as="sourcePoint" />
            <mxPoint x="560" y="500" as="targetPoint" />
          </mxGeometry>
        </mxCell>
        <mxCell id="5SAWFpddNFWqv7-z3w02-27" value="Receipt" style="shape=document;whiteSpace=wrap;html=1;boundedLbl=1;fontSize=16;" vertex="1" parent="WIyWlLk6GJQsqaUBKTNV-1">
          <mxGeometry x="480" y="545" width="120" height="40" as="geometry" />
        </mxCell>
        <mxCell id="5SAWFpddNFWqv7-z3w02-28" value="" style="rounded=0;html=1;jettySize=auto;orthogonalLoop=1;fontSize=11;endArrow=block;endFill=0;endSize=8;strokeWidth=1;shadow=0;labelBackgroundColor=none;edgeStyle=orthogonalEdgeStyle;exitX=0.5;exitY=0;exitDx=0;exitDy=0;entryX=0.5;entryY=0.875;entryDx=0;entryDy=0;entryPerimeter=0;" edge="1" parent="WIyWlLk6GJQsqaUBKTNV-1" source="5SAWFpddNFWqv7-z3w02-21" target="5SAWFpddNFWqv7-z3w02-27">
          <mxGeometry relative="1" as="geometry">
            <mxPoint x="390" y="544" as="sourcePoint" />
            <mxPoint x="260" y="598" as="targetPoint" />
          </mxGeometry>
        </mxCell>
        <mxCell id="5SAWFpddNFWqv7-z3w02-29" value="End" style="ellipse;whiteSpace=wrap;html=1;fontSize=16;" vertex="1" parent="WIyWlLk6GJQsqaUBKTNV-1">
          <mxGeometry x="480" y="710" width="120" height="40" as="geometry" />
        </mxCell>
        <mxCell id="5SAWFpddNFWqv7-z3w02-30" value="" style="rounded=0;html=1;jettySize=auto;orthogonalLoop=1;fontSize=11;endArrow=block;endFill=0;endSize=8;strokeWidth=1;shadow=0;labelBackgroundColor=none;edgeStyle=orthogonalEdgeStyle;exitX=0.5;exitY=1;exitDx=0;exitDy=0;entryX=0.5;entryY=0;entryDx=0;entryDy=0;" edge="1" parent="WIyWlLk6GJQsqaUBKTNV-1" source="5SAWFpddNFWqv7-z3w02-21" target="5SAWFpddNFWqv7-z3w02-29">
          <mxGeometry relative="1" as="geometry">
            <mxPoint x="340" y="720" as="sourcePoint" />
            <mxPoint x="400" y="720" as="targetPoint" />
          </mxGeometry>
        </mxCell>
      </root>
    </mxGraphModel>
  </diagram>
</mxfile>
